<!DOCTYPE svg PUBLIC "-//W3C//DTD SVG 1.1//EN" "http://www.w3.org/Graphics/SVG/1.1/DTD/svg11.dtd">
<!-- Uploaded to: SVG Repo, www.svgrepo.com, Transformed by: SVG Repo Mixer Tools -->
<svg fill="#5c5c5c" width="800px" height="800px" viewBox="0 0 256 256" id="Flat" xmlns="http://www.w3.org/2000/svg" stroke="#5c5c5c">
<g id="SVGRepo_bgCarrier" stroke-width="0"/>
<g id="SVGRepo_tracerCarrier" stroke-linecap="round" stroke-linejoin="round"/>
<g id="SVGRepo_iconCarrier"> <path d="M160,60H64A12.01343,12.01343,0,0,0,52,72V224a4.00021,4.00021,0,0,0,6.3252,3.25488L111.99268,188.916l53.68261,38.33886A3.99976,3.99976,0,0,0,172,224V72A12.01343,12.01343,0,0,0,160,60Zm4,156.22754-49.68262-35.48242a3.99976,3.99976,0,0,0-4.6499,0L60,216.22656V72a4.00427,4.00427,0,0,1,4-4h96a4.00427,4.00427,0,0,1,4,4ZM204,40V192a4,4,0,0,1-8,0V40a4.00427,4.00427,0,0,0-4-4H88a4,4,0,0,1,0-8H192A12.01343,12.01343,0,0,1,204,40Z"/> </g>
</svg>